# xmcd
#
# Track frame offsets: 
#        150
#        17485
#        37775
#        58134
#        76172
#        99056
#        119858
#        142620
#        164177
#
# Disc length: 2680 seconds
#
# Revision: 2
# Processed by: cddbd v1.5.2PL0 Copyright (c) Steve Scherf et al.
# Submitted via: ExactAudioCopy v0.99pb5
#
DISCID=680a7609
DTITLE=Beat Daddys - Live
DYEAR=1997
DGENRE=Blues
TTITLE0=Hoosier Lottery
TTITLE1=Different Names
TTITLE2=Bad News
TTITLE3=Mississippi
TTITLE4=Reasons
TTITLE5=Train In The Distance
TTITLE6=Livin' This Love
TTITLE7=Rainin' In The Real World
TTITLE8=Ruby's Blues
EXTD=
EXTT0=
EXTT1=
EXTT2=
EXTT3=
EXTT4=
EXTT5=
EXTT6=
EXTT7=
EXTT8=
PLAYORDER=
